<svg data-v-423bf9ae="" xmlns="http://www.w3.org/2000/svg" viewBox="0 0 372.2799678003935 163" class="iconAbove"><!----><!----><!----><g data-v-423bf9ae="" id="3c6f6a95-0851-4199-8b53-98becfd81e74" fill="#DAA8DB" transform="matrix(4.51467302315642,0,0,4.51467302315642,-2.6636609375996727,85.57336391202813)"><path d="M4.14 14.52C6.37 14.52 7.63 13.38 7.63 11.56C7.63 10.25 6.94 9.20 5.10 8.88L4.05 8.69C2.74 8.47 2.31 7.97 2.31 7.13C2.31 6.09 3.00 5.56 4.24 5.56C5.39 5.56 6.10 6.02 6.64 6.71L7.53 5.87C6.87 4.96 5.80 4.41 4.26 4.41C2.21 4.41 0.94 5.36 0.94 7.17C0.94 8.44 1.57 9.55 3.46 9.86L4.54 10.04C5.80 10.25 6.26 10.72 6.26 11.62C6.26 12.73 5.53 13.37 4.20 13.37C3.08 13.37 2.27 12.94 1.51 12.01L0.59 12.84C1.33 13.83 2.42 14.52 4.14 14.52ZM12.60 14.52C14.67 14.52 15.95 13.05 15.95 10.74C15.95 8.43 14.67 6.96 12.60 6.96C10.53 6.96 9.25 8.43 9.25 10.74C9.25 13.05 10.53 14.52 12.60 14.52ZM12.60 13.44C11.41 13.44 10.64 12.73 10.64 11.27L10.64 10.21C10.64 8.75 11.41 8.04 12.60 8.04C13.79 8.04 14.56 8.75 14.56 10.21L14.56 11.27C14.56 12.73 13.79 13.44 12.60 13.44ZM18.03 17.15L19.33 17.15L19.33 13.15L19.40 13.15C19.84 14.03 20.57 14.52 21.62 14.52C23.34 14.52 24.42 13.15 24.42 10.74C24.42 8.33 23.34 6.96 21.62 6.96C20.57 6.96 19.84 7.45 19.40 8.33L19.33 8.33L19.33 7.13L18.03 7.13ZM21.08 13.41C20.15 13.41 19.33 12.92 19.33 12.00L19.33 9.48C19.33 8.55 20.15 8.06 21.08 8.06C22.32 8.06 23.03 8.89 23.03 10.14L23.03 11.34C23.03 12.59 22.32 13.41 21.08 13.41ZM26.49 14.35L27.79 14.35L27.79 9.39C27.79 8.48 28.63 8.06 29.48 8.06C30.53 8.06 31.09 8.68 31.09 9.93L31.09 14.35L32.40 14.35L32.40 9.70C32.40 7.95 31.40 6.96 29.92 6.96C28.73 6.96 28.15 7.60 27.85 8.33L27.79 8.33L27.79 3.99L26.49 3.99ZM38.25 5.66C38.95 5.66 39.20 5.32 39.20 4.90L39.20 4.63C39.20 4.20 38.95 3.86 38.25 3.86C37.55 3.86 37.30 4.20 37.30 4.63L37.30 4.90C37.30 5.32 37.55 5.66 38.25 5.66ZM35.06 14.35L41.27 14.35L41.27 13.27L38.89 13.27L38.89 7.13L35.06 7.13L35.06 8.20L37.59 8.20L37.59 13.27L35.06 13.27ZM49.76 14.35L49.76 13.27L48.79 13.27L48.79 9.45C48.79 7.87 47.70 6.96 45.95 6.96C44.45 6.96 43.50 7.64 43.12 8.40L43.95 9.06C44.32 8.41 44.90 8.02 45.85 8.02C46.91 8.02 47.49 8.54 47.49 9.56L47.49 10.21L46.02 10.21C43.86 10.21 42.88 10.96 42.88 12.33C42.88 13.69 43.85 14.52 45.33 14.52C46.49 14.52 47.21 14 47.52 13.16L47.59 13.16C47.67 13.86 48.05 14.35 48.90 14.35ZM45.64 13.50C44.77 13.50 44.23 13.13 44.23 12.43L44.23 12.14C44.23 11.47 44.80 11.10 46.03 11.10L47.49 11.10L47.49 12.22C47.49 12.95 46.72 13.50 45.64 13.50ZM54.60 14.49C55.41 14.49 55.72 14.08 55.72 13.58L55.72 13.29C55.72 12.78 55.41 12.39 54.60 12.39C53.79 12.39 53.48 12.78 53.48 13.29L53.48 13.58C53.48 14.08 53.79 14.49 54.60 14.49ZM61.84 14.35L62.94 8.60L63.06 8.60L64.16 14.35L66.04 14.35L66.78 4.58L65.62 4.58L65.24 10.11L65.04 12.96L64.93 12.96L63.73 7.04L62.30 7.04L61.10 12.96L60.98 12.96L60.79 10.11L60.42 4.58L59.22 4.58L59.96 14.35ZM75.25 5.74L75.25 4.58L67.55 4.58L67.55 5.74L70.73 5.74L70.73 14.35L72.07 14.35L72.07 5.74ZM78.19 14.35L78.19 9.98L82.63 9.98L82.63 8.82L78.19 8.82L78.19 5.74L83.05 5.74L83.05 4.58L76.83 4.58L76.83 14.35Z"></path></g><!----><g data-v-423bf9ae="" id="f07fe602-6435-41f2-8ca5-bca854c85153" transform="matrix(4.5,0,0,4.5,43,-99)" stroke="none" fill="#DAA8DB"><path d="M9 22v4c-1.4.4-2.5 1.8-2.5 3.3v1H5v7.8h4V42h50V22H9zm-.5 7.3c0-.8.7-1.5 1.5-1.5s1.5.7 1.5 1.5v1h-3v-1zm-1.5 3h6v3.8H7v-3.8zM57 40H11v-1.8h4v-7.8h-1.5v-1c0-1.6-1.1-2.9-2.5-3.3v-2h46V40z"></path><path d="M20.1 31.7c.2-.2.3-.3.5-.4.2-.1.4-.1.6-.1.3 0 .5.1.7.3.1.2.2.4.2.7v3.3h1.2v-3.3c0-.3 0-.5-.1-.8l-.3-.6c-.1-.2-.3-.3-.5-.4-.2-.1-.5-.1-.7-.1-.3 0-.6.1-.8.2-.2.1-.5.3-.7.5v-3H19v7.4h1.2v-3.7zM24.4 31.2h.5v2.9c0 .4.1.8.4 1 .2.3.6.4 1 .4.3 0 .5 0 .7-.1l.6-.3-.4-.6-.1-.1H27h-.1s-.1 0-.1.1c0 0-.1 0-.1.1h-.2c-.1 0-.2 0-.3-.1-.1-.1-.1-.2-.1-.4v-2.8h1.4v-.9h-1.4v-1.6h-.6c-.1 0-.1 0-.2.1s-.1.1-.1.2l-.2 1.2-.8.1v.5c0 .1 0 .2.1.2s0 .1.1.1zM28.2 31.2h.5v2.9c0 .4.1.8.4 1 .2.3.6.4 1 .4.3 0 .5 0 .7-.1l.6-.3-.4-.6-.1-.1h-.1-.1s-.1 0-.1.1c0 0-.1 0-.1.1h-.2c-.1 0-.2 0-.3-.1v-3.3h1.4v-.9H30v-1.6h-.6c-.1 0-.1 0-.2.1s-.1.1-.1.2l-.3 1.4H28v.5c0 .1 0 .2.1.2s.1.1.1.1zM33.6 35c.2.2.3.3.5.4s.4.1.7.1c.3 0 .6-.1.9-.2.3-.1.5-.3.7-.6.2-.2.3-.5.4-.9.1-.3.2-.7.2-1.1 0-.4 0-.8-.1-1.1-.1-.3-.2-.6-.4-.8s-.4-.4-.6-.5c-.2-.1-.5-.2-.8-.2-.4 0-.7.1-.9.2-.3.1-.5.3-.7.6l-.1-.5c0-.1-.1-.1-.1-.2-.1 0-.1-.1-.2-.1h-.8v6.8h1.2V35zm0-3.2l.5-.5c.2-.2.4-.2.7-.2.2 0 .3 0 .4.1l.3.3c.1.1.2.3.2.5s.1.5.1.8c0 .3 0 .6-.1.8s-.1.4-.2.5c-.1.1-.2.3-.4.3-.2.1-.3.1-.5.1s-.4 0-.5-.1c-.2-.1-.3-.2-.5-.4v-2.2zM40 34.4c-.1.1-.2.1-.3.1-.1 0-.2.1-.4.1s-.3 0-.5-.1c-.1 0-.2-.1-.3-.1-.1 0-.2-.1-.2-.1-.1 0-.1-.1-.2-.1h-.2l-.1.1-.3.5.3.3c.1.1.3.1.4.2.2.1.3.1.5.1h.5c.3 0 .6 0 .9-.1.3-.1.5-.2.6-.4.2-.2.3-.3.4-.5.1-.2.1-.4.1-.7 0-.2 0-.4-.1-.5-.1-.1-.2-.3-.3-.4s-.3-.2-.4-.3-.3-.1-.5-.2-.3-.1-.5-.1-.3-.1-.4-.2c.1.1 0 0 0-.1-.1-.1-.1-.2-.1-.3 0-.2.1-.3.2-.4.1-.1.3-.2.6-.2.2 0 .3 0 .4.1.1 0 .2.1.3.1.1 0 .2.1.2.1.1 0 .1.1.2.1h.1l.1-.1.3-.4c-.2-.2-.4-.3-.7-.5-.3-.1-.6-.2-1-.2-.3 0-.6 0-.8.1l-.6.3c-.2.1-.3.3-.4.5-.1.2-.1.4-.1.6 0 .2 0 .4.1.6.1.2.2.3.3.4.1.1.3.2.4.3.2.1.3.1.5.2s.3.1.5.1.3.1.4.2c.1.1.2.1.3.2.1.1.1.2.1.3v.2c-.2.1-.2.2-.3.2zM42.5 31.7l.2.2c.1 0 .2.1.3.1.1 0 .2 0 .3-.1.1 0 .2-.1.2-.2l.2-.2c0-.1.1-.2.1-.3 0-.1 0-.2-.1-.3s-.1-.2-.2-.2l-.2-.2c-.1-.1-.2-.1-.3-.1-.1 0-.2 0-.3.1s-.2.1-.2.2l-.2.2c0 .1-.1.2-.1.3 0 .1 0 .2.1.3.1 0 .1.1.2.2zM42.5 35.3l.2.2c.1 0 .2.1.3.1.1 0 .2 0 .3-.1.1 0 .2-.1.2-.2l.2-.2c0-.1.1-.2.1-.3 0-.1 0-.2-.1-.3s-.1-.2-.2-.2l-.2-.2c-.1-.1-.2-.1-.3-.1-.1 0-.2 0-.3.1s-.2.1-.2.2l-.2.2c0 .1-.1.2-.1.3 0 .1 0 .2.1.3.1 0 .1.1.2.2zM45 35.8c.1 0 .1 0 .2-.1.1 0 .1-.1.2-.1 0-.1.1-.1.1-.2l2.9-7.4h-.5c-.1 0-.3 0-.4.1-.1.1-.2.2-.2.3l-2.9 7.5h.5c-.1 0 0 0 .1-.1zM47.8 35.9h.2c.1 0 .1 0 .2-.1.1 0 .1-.1.2-.1 0-.1.1-.1.1-.2l2.9-7.4h-.5c-.1 0-.3 0-.4.1-.1.1-.2.2-.2.3L47.4 36h.4z"></path></g><!----></svg>